<?xml version="1.0" encoding="UTF-8" standalone="no"?>
<!-- Created with Inkscape (http://www.inkscape.org/) -->

<svg
   width="200mm"
   height="200mm"
   viewBox="0 0 200 200"
   version="1.1"
   id="svg1"
   xmlns="http://www.w3.org/2000/svg"
   xmlns:svg="http://www.w3.org/2000/svg">
  <defs
     id="defs1" />
  <g
     id="layer1">
    <path
       style="fill:#df3f36;fill-opacity:0.168539;stroke-width:0.264583"
       id="path6"
       d="M 59.947158,79.375011 A 52.916668,52.916668 0 0 1 105.77434,52.916676 52.916668,52.916668 0 0 1 151.60152,79.375008 L 105.77434,105.83334 Z" />
    <path
       style="fill:#ff00ff;fill-opacity:0.168539;stroke-width:0.264583"
       id="path6-0"
       d="m -7.0620428,-170.97664 a 52.916668,52.916668 0 0 1 45.8271798,-26.45834 52.916668,52.916668 0 0 1 45.827178,26.45833 l -45.827178,26.45834 z"
       transform="rotate(120)" />
    <path
       style="fill:#00ffff;fill-opacity:0.168539;stroke-width:0.264583"
       id="path6-0-0"
       d="m 98.79393,12.250438 a 52.916668,52.916668 0 0 1 45.82718,-26.458335 52.916668,52.916668 0 0 1 45.82718,26.458332 l -45.82718,26.458336 z"
       transform="matrix(0.5,0.8660254,0.8660254,-0.5,0,0)" />
  </g>
</svg>
